<svg width="512" height="512" viewBox="0 0 512 512" fill="none" xmlns="http://www.w3.org/2000/svg">
  <rect width="512" height="512" rx="128" fill="#0F8B8D"/>
  <path d="M164 144C164 132.954 172.954 124 184 124H222C300.307 124 364 187.693 364 266C364 344.307 300.307 408 222 408H184C172.954 408 164 399.046 164 388V144Z" fill="#E8FCFD"/>
  <path d="M208 174H222C272.81 174 314 215.19 314 266C314 316.81 272.81 358 222 358H208V174Z" fill="#0F8B8D"/>
  <path d="M261 136C279.167 147.833 294.667 163.333 307.5 183.5C320.333 203.667 326.75 225.5 326.75 249C326.75 272.5 320.333 294.333 307.5 314.5C294.667 334.667 279.167 350.167 261 362" stroke="#59D7D9" stroke-width="24" stroke-linecap="round"/>
  <circle cx="184" cy="184" r="18" fill="#59D7D9"/>
  <circle cx="184" cy="328" r="18" fill="#59D7D9"/>
</svg>
