<svg width="1200" height="700" viewBox="0 0 1200 700" xmlns="http://www.w3.org/2000/svg">
  <rect width="1200" height="700" fill="#fbfcff"/>
  <style>.title{font:700 34px sans-serif;fill:#183153}.lab{font:600 21px sans-serif;fill:#183153}.small{font:500 16px sans-serif;fill:#456}</style>
  <text x="60" y="60" class="title">CNV interpretation</text>
  <line x1="100" y1="300" x2="1100" y2="300" stroke="#547391" stroke-width="6"/>
  <rect x="180" y="260" width="120" height="80" fill="#8ec5ff" rx="10"/>
  <rect x="380" y="260" width="120" height="80" fill="#8ec5ff" rx="10"/>
  <rect x="640" y="260" width="120" height="80" fill="#8ec5ff" rx="10"/>
  <rect x="900" y="260" width="120" height="80" fill="#8ec5ff" rx="10"/>
  <rect x="350" y="245" width="470" height="110" fill="#ffb3b3" opacity="0.9" rx="14"/>
  <text x="500" y="220" class="lab">candidate deletion</text>
  <text x="203" y="385" class="lab">Gene A</text><text x="404" y="385" class="lab">Gene B</text><text x="664" y="385" class="lab">Gene C</text><text x="925" y="385" class="lab">Gene D</text>
  <rect x="120" y="470" width="240" height="120" rx="18" fill="white" stroke="#b8d7f0" stroke-width="2"/>
  <text x="184" y="515" class="lab">大小</text><text x="160" y="548" class="small">不是唯一解释依据</text>
  <rect x="390" y="470" width="240" height="120" rx="18" fill="white" stroke="#b8d7f0" stroke-width="2"/>
  <text x="448" y="515" class="lab">基因内容</text><text x="417" y="548" class="small">是否涉及剂量敏感基因</text>
  <rect x="660" y="470" width="240" height="120" rx="18" fill="white" stroke="#b8d7f0" stroke-width="2"/>
  <text x="738" y="515" class="lab">表型</text><text x="715" y="548" class="small">是否与患者症状一致</text>
  <rect x="930" y="470" width="180" height="120" rx="18" fill="white" stroke="#b8d7f0" stroke-width="2"/>
  <text x="972" y="515" class="lab">数据库</text><text x="967" y="548" class="small">ClinGen / DECIPHER</text>
</svg>