<svg width="1200" height="700" viewBox="0 0 1200 700" xmlns="http://www.w3.org/2000/svg">
  <rect width="1200" height="700" fill="#fbfcff"/>
  <style>.title{font:700 34px sans-serif;fill:#183153}.axis{stroke:#3c5874;stroke-width:3}.small{font:500 15px sans-serif;fill:#456}.sig{stroke:#d74b4b;stroke-width:3;stroke-dasharray:8 8}.lab{font:600 18px sans-serif;fill:#183153}</style>
  <text x="60" y="60" class="title">GWAS Manhattan plot</text>
  <line x1="90" y1="610" x2="1130" y2="610" class="axis"/>
  <line x1="90" y1="100" x2="90" y2="610" class="axis"/>
  <line x1="90" y1="190" x2="1130" y2="190" class="sig"/>
  <text x="950" y="180" class="small">genome-wide significance</text>
  <g fill="#7fb3ff">
    <circle cx="120" cy="560" r="5"/><circle cx="145" cy="530" r="5"/><circle cx="170" cy="575" r="5"/><circle cx="195" cy="515" r="5"/><circle cx="220" cy="545" r="5"/>
    <circle cx="260" cy="540" r="5"/><circle cx="285" cy="500" r="5"/><circle cx="310" cy="460" r="5"/><circle cx="335" cy="420" r="5"/><circle cx="360" cy="260" r="7"/>
  </g>
  <g fill="#ffb36b">
    <circle cx="410" cy="570" r="5"/><circle cx="435" cy="560" r="5"/><circle cx="460" cy="540" r="5"/><circle cx="485" cy="565" r="5"/><circle cx="510" cy="490" r="5"/>
    <circle cx="535" cy="350" r="6"/><circle cx="560" cy="250" r="7"/><circle cx="585" cy="150" r="8"/>
  </g>
  <g fill="#8fd3a8">
    <circle cx="650" cy="560" r="5"/><circle cx="675" cy="535" r="5"/><circle cx="700" cy="525" r="5"/><circle cx="725" cy="545" r="5"/><circle cx="750" cy="570" r="5"/>
    <circle cx="775" cy="490" r="5"/><circle cx="800" cy="455" r="5"/><circle cx="825" cy="430" r="5"/>
  </g>
  <g fill="#c3a4ff">
    <circle cx="890" cy="560" r="5"/><circle cx="915" cy="545" r="5"/><circle cx="940" cy="525" r="5"/><circle cx="965" cy="500" r="5"/><circle cx="990" cy="280" r="7"/>
    <circle cx="1015" cy="220" r="7"/><circle cx="1040" cy="170" r="8"/><circle cx="1065" cy="140" r="9"/>
  </g>
  <text x="355" y="240" class="lab">chr1 peak</text>
  <text x="580" y="135" class="lab">chr2 peak</text>
  <text x="1045" y="125" class="lab">chr4 peak</text>
  <text x="575" y="655" class="small">chromosome position</text>
  <g transform="translate(25,390) rotate(-90)"><text class="small">-log10(p)</text></g>
</svg>