<svg width="960" height="720" viewBox="0 0 960 720" fill="none" xmlns="http://www.w3.org/2000/svg">
  <rect width="960" height="720" rx="40" fill="#E8FCFD"/>
  <rect x="82" y="92" width="796" height="536" rx="28" fill="white" stroke="#B9EBEC" stroke-width="8"/>
  <rect x="122" y="132" width="198" height="456" rx="22" fill="#F3FEFE"/>
  <rect x="150" y="176" width="140" height="18" rx="9" fill="#0F8B8D" fill-opacity="0.18"/>
  <rect x="150" y="224" width="110" height="14" rx="7" fill="#0F8B8D" fill-opacity="0.18"/>
  <rect x="150" y="258" width="126" height="14" rx="7" fill="#0F8B8D" fill-opacity="0.18"/>
  <rect x="150" y="292" width="98" height="14" rx="7" fill="#0F8B8D" fill-opacity="0.18"/>
  <rect x="150" y="346" width="140" height="14" rx="7" fill="#0F8B8D" fill-opacity="0.18"/>
  <rect x="150" y="380" width="118" height="14" rx="7" fill="#0F8B8D" fill-opacity="0.18"/>
  <rect x="360" y="148" width="468" height="54" rx="18" fill="#0F8B8D"/>
  <rect x="390" y="168" width="180" height="14" rx="7" fill="#E8FCFD"/>
  <rect x="360" y="234" width="468" height="144" rx="24" fill="#F8FFFF" stroke="#D2F2F3" stroke-width="4"/>
  <path d="M410 330C450 250 500 250 540 330C580 410 630 410 670 330C710 250 760 250 790 310" stroke="#11999B" stroke-width="12" stroke-linecap="round"/>
  <circle cx="540" cy="330" r="16" fill="#0F8B8D"/>
  <circle cx="670" cy="330" r="16" fill="#59D7D9"/>
  <rect x="360" y="408" width="220" height="150" rx="24" fill="#F8FFFF" stroke="#D2F2F3" stroke-width="4"/>
  <path d="M398 502L436 456L474 492L518 434L542 468" stroke="#0F8B8D" stroke-width="10" stroke-linecap="round" stroke-linejoin="round"/>
  <rect x="608" y="408" width="220" height="150" rx="24" fill="#F8FFFF" stroke="#D2F2F3" stroke-width="4"/>
  <path d="M650 452H786" stroke="#59D7D9" stroke-width="12" stroke-linecap="round"/>
  <path d="M650 492H750" stroke="#0F8B8D" stroke-width="12" stroke-linecap="round"/>
  <path d="M650 532H728" stroke="#59D7D9" stroke-width="12" stroke-linecap="round"/>
  <circle cx="780" cy="120" r="52" fill="#D9F7F8"/>
  <path d="M758 102C774 86 802 87 818 104C834 121 833 149 816 165L782 199L747 164C729 146 729 118 745 101C749 97 754 94 758 102Z" fill="#0F8B8D"/>
</svg>
