<svg width="1200" height="700" viewBox="0 0 1200 700" xmlns="http://www.w3.org/2000/svg"><rect width="1200" height="700" fill="#fbfcff"/><style>.title{font:700 34px sans-serif;fill:#183153}.lab{font:600 21px sans-serif;fill:#183153}.small{font:500 16px sans-serif;fill:#456}.box{fill:white;stroke:#b8d7f0;stroke-width:2;rx:18}</style><text x="60" y="60" class="title">Multi-omics integration</text><rect x="110" y="160" width="180" height="100" class="box"/><text x="173" y="202" class="lab">DNA</text><text x="142" y="232" class="small">mutation / CNV / SV</text><rect x="110" y="305" width="180" height="100" class="box"/><text x="173" y="347" class="lab">RNA</text><text x="145" y="377" class="small">expression / isoforms</text><rect x="110" y="450" width="180" height="100" class="box"/><text x="150" y="492" class="lab">Chromatin</text><text x="142" y="522" class="small">ATAC / ChIP / methylation</text><rect x="450" y="265" width="280" height="180" class="box"/><text x="500" y="330" class="lab">Shared latent space</text><text x="500" y="365" class="small">representation / factors / graph</text><rect x="900" y="170" width="180" height="100" class="box"/><text x="940" y="212" class="lab">表型</text><text x="920" y="242" class="small">subtype / response</text><rect x="900" y="315" width="180" height="100" class="box"/><text x="945" y="357" class="lab">机制</text><text x="922" y="387" class="small">pathway / regulation</text><rect x="900" y="460" width="180" height="100" class="box"/><text x="946" y="502" class="lab">预测</text><text x="928" y="532" class="small">risk / outcome</text><path d="M290 210 H450" stroke="#4f8cc9" stroke-width="4" fill="none" marker-end="url(#arrow)"/><path d="M290 355 H450" stroke="#4f8cc9" stroke-width="4" fill="none" marker-end="url(#arrow)"/><path d="M290 500 H450" stroke="#4f8cc9" stroke-width="4" fill="none" marker-end="url(#arrow)"/><path d="M730 355 H900" stroke="#4f8cc9" stroke-width="4" fill="none" marker-end="url(#arrow)"/><defs><marker id="arrow" viewBox="0 0 10 10" refX="9" refY="5" markerWidth="8" markerHeight="8" orient="auto"><path d="M0 0 L10 5 L0 10 z" fill="#4f8cc9"/></marker></defs></svg>