<svg width="600" height="320" viewBox="0 0 600 320" fill="none" xmlns="http://www.w3.org/2000/svg">
  <rect width="600" height="320" rx="28" fill="#f5f3ff"/>
  <rect x="86" y="58" width="428" height="204" rx="18" fill="white" stroke="#ddd6fe" stroke-width="4"/>
  <path d="M140 102H460" stroke="#c7d2fe" stroke-width="2"/>
  <path d="M140 136H460" stroke="#c7d2fe" stroke-width="2"/>
  <path d="M140 170H460" stroke="#c7d2fe" stroke-width="2"/>
  <path d="M140 204H460" stroke="#c7d2fe" stroke-width="2"/>
  <path d="M140 238H460" stroke="#c7d2fe" stroke-width="2"/>
  <path d="M180 86V244" stroke="#c7d2fe" stroke-width="2"/>
  <path d="M230 86V244" stroke="#c7d2fe" stroke-width="2"/>
  <path d="M280 86V244" stroke="#c7d2fe" stroke-width="2"/>
  <path d="M330 86V244" stroke="#c7d2fe" stroke-width="2"/>
  <path d="M380 86V244" stroke="#c7d2fe" stroke-width="2"/>
  <path d="M430 86V244" stroke="#c7d2fe" stroke-width="2"/>
  <path d="M150 224L210 164L260 190L320 122L390 154L450 108" stroke="#4f46e5" stroke-width="10" stroke-linecap="round" stroke-linejoin="round"/>
  <circle cx="210" cy="164" r="10" fill="#818cf8"/>
  <circle cx="320" cy="122" r="10" fill="#4f46e5"/>
  <circle cx="450" cy="108" r="10" fill="#818cf8"/>
</svg>
