<svg width="760" height="420" viewBox="0 0 760 420" fill="none" xmlns="http://www.w3.org/2000/svg">
  <rect width="760" height="420" rx="28" fill="#f5f3ff"/>
  <text x="64" y="72" fill="#3730a3" font-size="28" font-family="Arial" font-weight="700">HMM 状态转移示意</text>
  <text x="64" y="106" fill="#64748b" font-size="18" font-family="Arial">隐藏状态决定区段类别，观测序列由状态发射。</text>
  <g fill="white" stroke="#4f46e5" stroke-width="8">
    <circle cx="250" cy="190" r="58"/>
    <circle cx="510" cy="190" r="58" fill="#e0e7ff"/>
  </g>
  <g fill="#1e1b4b" font-size="26" font-family="Arial" font-weight="700" text-anchor="middle">
    <text x="250" y="198">C</text>
    <text x="510" y="198">N</text>
  </g>
  <g stroke="#4f46e5" stroke-width="10" stroke-linecap="round" stroke-linejoin="round">
    <path d="M308 190H452"/>
    <path d="M452 212L482 190L452 168"/>
    <path d="M452 238H308"/>
    <path d="M308 260L278 238L308 216"/>
    <path d="M208 114C176 116 154 138 154 166C154 184 162 198 176 208"/>
    <path d="M170 96L202 112L173 132"/>
    <path d="M552 114C584 116 606 138 606 166C606 184 598 198 584 208"/>
    <path d="M590 96L558 112L587 132"/>
  </g>
  <g fill="#64748b" font-size="18" font-family="Arial" text-anchor="middle">
    <text x="380" y="178">a_CN</text>
    <text x="380" y="230">a_NC</text>
    <text x="180" y="90">a_CC</text>
    <text x="580" y="90">a_NN</text>
  </g>
  <g fill="#64748b" font-size="18" font-family="Arial">
    <text x="212" y="304">发射：A/C/G/T</text>
    <text x="468" y="304">发射：A/C/G/T</text>
  </g>
  <g stroke="#818cf8" stroke-width="8" stroke-linecap="round">
    <path d="M250 248V286"/>
    <path d="M510 248V286"/>
  </g>
  <text x="64" y="360" fill="#64748b" font-size="18" font-family="Arial">Viterbi 会在整条观测序列上寻找最可能的隐藏状态路径，而不是逐位独立判断。</text>
</svg>
