<svg width="1200" height="700" viewBox="0 0 1200 700" xmlns="http://www.w3.org/2000/svg"><rect width="1200" height="700" fill="#fbfcff"/><style>.title{font:700 34px sans-serif;fill:#183153}.lab{font:600 21px sans-serif;fill:#183153}.small{font:500 16px sans-serif;fill:#456}.box{fill:white;stroke:#b8d7f0;stroke-width:2;rx:18}</style><text x="60" y="60" class="title">Single-cell multiome</text><circle cx="250" cy="340" r="130" fill="#f4f9ff" stroke="#8cb8e8" stroke-width="3"/><ellipse cx="250" cy="340" rx="70" ry="50" fill="#d8e9ff" stroke="#8cb8e8" stroke-width="2"/><path d="M220 335 C240 300, 280 305, 290 338 C282 372, 235 376, 220 335" fill="none" stroke="#7bb8ff" stroke-width="6"/><path d="M210 300 C240 275, 290 280, 310 318" fill="none" stroke="#ff9f7b" stroke-width="6"/><text x="195" y="520" class="lab">同一细胞</text><rect x="470" y="180" width="260" height="130" class="box"/><text x="558" y="230" class="lab">RNA</text><text x="510" y="262" class="small">gene expression, spliced/unspliced</text><rect x="470" y="370" width="260" height="130" class="box"/><text x="554" y="420" class="lab">ATAC</text><text x="515" y="452" class="small">open chromatin, peaks, motifs</text><rect x="860" y="275" width="240" height="140" class="box"/><text x="910" y="330" class="lab">联合表示</text><text x="894" y="362" class="small">WNN / multiVI / graph fusion</text><path d="M380 275 H470" stroke="#4f8cc9" stroke-width="4" fill="none" marker-end="url(#arrow)"/><path d="M380 405 H470" stroke="#4f8cc9" stroke-width="4" fill="none" marker-end="url(#arrow)"/><path d="M730 340 H860" stroke="#4f8cc9" stroke-width="4" fill="none" marker-end="url(#arrow)"/><defs><marker id="arrow" viewBox="0 0 10 10" refX="9" refY="5" markerWidth="8" markerHeight="8" orient="auto"><path d="M0 0 L10 5 L0 10 z" fill="#4f8cc9"/></marker></defs></svg>